<svg width="1504" height="1504" viewBox="0 0 1504 1504" fill="none" xmlns="http://www.w3.org/2000/svg">
<rect width="1504" height="1504" rx="277" fill="black"/>
<path fill-rule="evenodd" clip-rule="evenodd" d="M752.427 1175.16C851.387 1175.16 941.013 1135.04 1005.85 1070.17C1070.73 1005.31 1110.85 915.693 1110.85 816.72C1110.85 814.133 1110.83 811.547 1110.77 808.987H863.053C863.227 811.547 863.307 814.12 863.307 816.72C863.307 847.36 850.907 875.08 830.84 895.147C810.787 915.187 783.053 927.6 752.427 927.6C721.8 927.6 694.067 915.187 674.019 895.147C653.947 875.08 641.551 847.36 641.551 816.72C641.551 814.12 641.628 811.547 641.8 808.987H394.077C394.02 811.547 394 814.133 394 816.72C394 915.693 434.124 1005.31 498.999 1070.17C563.847 1135.04 653.467 1175.16 752.427 1175.16ZM1110.85 328V566H863.307V328H1110.85ZM641.551 328V566H394V328H641.551Z" fill="white"/>
</svg>
